# File created by Blade
# Date/Time:  Thu Jan 22 16:36:34 2015
#---------------------------------------------------------
:version 1.10
:name HOM
:units
  mass 1.0
  length 1.000000
  angle deg
:documentation
     Acclaim Skeleton File
:root
   axis xyz
   order TX TY TZ RX RY RZ
   position 0.000000 0.000000 0.000000
   orientation 0 0 0
:bonedata
   begin
      id 1
      name RightUpLeg_dum
      direction -1.000000 0.000000 0.000000
      length 3.766986
      axis 0.0 0.0 0.0 xyz
   end
   begin
      id 2
      name LeftUpLeg_dum
      direction 1.000000 0.000000 0.000000
      length 3.766986
      axis 0.0 0.0 0.0 xyz
   end
   begin
      id 3
      name Spine_dum
      direction 0.000000 1.000000 0.000000
      length 7.779697
      axis 0.0 0.0 0.0 xyz
   end
   begin
      id 4
      name RightUpLeg
      direction 0.000000 -1.000000 0.000000
      length 18.017682
      axis 0.0 0.0 0.0 xyz
      dof rx ry rz
   end
   begin
      id 5
      name RightLeg
      direction 0.000000 -1.000000 0.000000
      length 16.881075
      axis 0.0 0.0 0.0 xyz
      dof rx ry rz
   end
   begin
      id 6
      name RightFoot
      direction 0.000000 -0.258819 0.965926
      length 5.770812
      axis 15.0 0.0 0.0 xyz
      dof rx ry rz
   end
   begin
      id 7
      name RightToeBase
      direction 0.000000 0.000000 1.000000
      length 2.952750
      axis 0.0 0.0 0.0 xyz
      dof rx ry rz
   end
   begin
      id 8
      name LeftUpLeg
      direction 0.000000 -1.000000 0.000000
      length 18.017682
      axis 0.0 0.0 0.0 xyz
      dof rx ry rz
   end
   begin
      id 9
      name LeftLeg
      direction 0.000000 -1.000000 0.000000
      length 16.881075
      axis 0.0 0.0 0.0 xyz
      dof rx ry rz
   end
   begin
      id 10
      name LeftFoot
      direction 0.000000 -0.258819 0.965926
      length 5.770812
      axis 15.0 0.0 0.0 xyz
      dof rx ry rz
   end
   begin
      id 11
      name LeftToeBase
      direction 0.000000 0.000000 1.000000
      length 2.952750
      axis 0.0 0.0 0.0 xyz
      dof rx ry rz
   end
   begin
      id 12
      name Spine
      direction 0.000000 1.000000 0.000000
      length 0.000000
      axis 0.0 0.0 0.0 xyz
      dof rx ry rz
   end
   begin
      id 13
      name Spine_dum1
      direction 0.000000 1.000000 0.000000
      length 10.941760
      axis 0.0 0.0 0.0 xyz
   end
   begin
      id 14
      name Spine_dum2
      direction 0.000000 1.000000 0.000000
      length 10.941760
      axis 0.0 0.0 0.0 xyz
   end
   begin
      id 15
      name Spine_dum3
      direction 0.000000 1.000000 0.000000
      length 16.646042
      axis 0.0 0.0 0.0 xyz
   end
   begin
      id 16
      name RightShoulder
      direction -1.000000 0.000000 0.000000
      length 7.708937
      axis 0.0 0.0 90.0 xyz
      dof rx ry rz
   end
   begin
      id 17
      name RightArm
      direction -1.000000 0.000000 0.000000
      length 11.521345
      axis 0.0 0.0 90.0 xyz
      dof rx ry rz
   end
   begin
      id 18
      name RightForeArm
      direction -1.000000 0.000000 0.000000
      length 10.175898
      axis 0.0 0.0 90.0 xyz
      dof ry rz rx
   end
   begin
      id 19
      name RightHand
      direction -1.000000 0.000000 0.000000
      length 0.000000
      axis 0.0 0.0 90.0 xyz
      dof rx ry rz
   end
   begin
      id 20
      name RightHand_dum1
      direction -1.000000 0.000000 0.000000
      length 3.937000
      axis 0.0 0.0 90.0 xyz
   end
   begin
      id 21
      name RightHand_dum2
      direction 0.000000 0.000000 0.000000
      length 0.000000
      axis 0.0 0.0 90.0 xyz
   end
   begin
      id 22
      name RightHandThumb1
      direction 0.000000 0.000000 1.000000
      length 3.937000
      axis 0.0 0.0 90.0 xyz
      dof rx rz ry
   end
   begin
      id 23
      name LeftShoulder
      direction 1.000000 0.000000 0.000000
      length 7.708937
      axis 0.0 0.0 -90.0 xyz
      dof rx ry rz
   end
   begin
      id 24
      name LeftArm
      direction 1.000000 0.000000 0.000000
      length 11.521345
      axis 0.0 0.0 -90.0 xyz
      dof rx ry rz
   end
   begin
      id 25
      name LeftForeArm
      direction 1.000000 0.000000 0.000000
      length 10.175898
      axis 0.0 0.0 -90.0 xyz
      dof ry rz rx
   end
   begin
      id 26
      name LeftHand
      direction 1.000000 0.000000 0.000000
      length 0.000000
      axis 0.0 0.0 -90.0 xyz
      dof rx ry rz
   end
   begin
      id 27
      name LeftHand_dum1
      direction 1.000000 0.000000 0.000000
      length 3.937000
      axis 0.0 0.0 -90.0 xyz
   end
   begin
      id 28
      name LeftHand_dum2
      direction 0.000000 0.000000 0.000000
      length 0.000000
      axis 0.0 0.0 -90.0 xyz
   end
   begin
      id 29
      name LeftHandThumb1
      direction 0.000000 0.000000 1.000000
      length 3.937000
      axis 0.0 0.0 -90.0 xyz
      dof rx rz ry
   end
   begin
      id 30
      name Head
      direction 0.000000 1.000000 0.000000
      length 4.527550
      axis 0.0 0.0 0.0 xyz
      dof rx ry rz
   end
:hierarchy
   begin
      root RightUpLeg_dum LeftUpLeg_dum Spine_dum
      RightUpLeg_dum RightUpLeg
      LeftUpLeg_dum LeftUpLeg
      Spine_dum Spine
      RightUpLeg RightLeg
      RightLeg RightFoot
      RightFoot RightToeBase
      LeftUpLeg LeftLeg
      LeftLeg LeftFoot
      LeftFoot LeftToeBase
      Spine Spine_dum1 Spine_dum2 Spine_dum3
      Spine_dum1 RightShoulder
      Spine_dum2 LeftShoulder
      Spine_dum3 Head
      RightShoulder RightArm
      RightArm RightForeArm
      RightForeArm RightHand
      RightHand RightHand_dum1 RightHand_dum2
      RightHand_dum2 RightHandThumb1
      LeftShoulder LeftArm
      LeftArm LeftForeArm
      LeftForeArm LeftHand
      LeftHand LeftHand_dum1 LeftHand_dum2
      LeftHand_dum2 LeftHandThumb1
   end

# File created by Blade
# Date/Time:  Thu Jan 22 16:36:26 2015
# Frame Rate: 120.000 fps
#------------------------------------------------------
:FULLY-SPECIFIED
:DEGREES
266
root 4.240282 30.159045 -1.417600 22.450190 -20.517015 12.392303
RightUpLeg -79.392764 -1.231834 -11.806538
RightLeg 67.203525 -0.000000 -0.000000
RightFoot -23.983043 -12.571088 18.031260
RightToeBase 15.781207 -0.000000 -0.000000
LeftUpLeg -68.565369 9.278766 -14.341550
LeftLeg 68.903573 -0.000000 -0.000000
LeftFoot -32.865280 17.147108 -22.834766
LeftToeBase 5.721323 -0.000000 -0.000000
Spine 72.205113 -11.623109 9.608971
RightShoulder 17.545061 0.927783 -21.755820
RightArm 25.413865 22.179266 49.368244
RightForeArm 32.798262 -0.000000 26.182781
RightHand 13.999158 0.000000 -14.395671
RightHandThumb1 -24.326973 -0.000000 -32.862282
LeftShoulder -9.328144 16.740822 27.002428
LeftArm 63.204595 -12.564031 -63.554842
LeftForeArm 27.054278 -0.000000 78.867697
LeftHand -18.543582 -0.000000 3.691973
LeftHandThumb1 -26.253704 0.000000 33.147579
Head 1.492917 -22.067883 15.317085
267
root 4.300556 29.953037 -1.457881 22.324240 -20.625259 12.601032
RightUpLeg -80.127932 -1.353105 -11.992730
RightLeg 68.292056 -0.000000 -0.000000
RightFoot -24.364976 -12.310985 18.226913
RightToeBase 16.009501 -0.000000 -0.000000
LeftUpLeg -69.164745 9.091762 -14.491544
LeftLeg 69.965314 -0.000000 -0.000000
LeftFoot -33.274079 17.169956 -22.783537
LeftToeBase 5.780329 -0.000000 -0.000000
Spine 72.374102 -11.885948 9.433000
RightShoulder 17.646437 0.996991 -21.887617
RightArm 25.249327 22.780568 49.407968
RightForeArm 33.228440 -0.000000 26.070860
RightHand 13.923880 0.000000 -14.271492
RightHandThumb1 -24.326973 -0.000000 -32.862282
LeftShoulder -9.485454 17.185123 26.883078
LeftArm 63.601679 -13.161180 -63.052019
LeftForeArm 26.506932 0.000000 78.133391
LeftHand -18.443198 -0.000000 3.538272
LeftHandThumb1 -26.253704 0.000000 33.147579
Head 1.338878 -21.863162 15.129727
268
root 4.361284 29.747039 -1.494904 22.131614 -20.706595 12.831404
RightUpLeg -80.812121 -1.553986 -12.119573
RightLeg 69.399595 -0.000000 -0.000000
RightFoot -24.677076 -11.881332 18.706679
RightToeBase 15.876449 -0.000000 -0.000000
LeftUpLeg -69.672925 8.978514 -14.715870
LeftLeg 70.959234 -0.000000 -0.000000
LeftFoot -33.680211 17.249687 -22.592312
LeftToeBase 5.608677 -0.000000 -0.000000
Spine 72.570752 -12.107881 9.339505
RightShoulder 17.672552 -0.085279 -22.211668
RightArm 25.977562 24.017929 49.541743
RightForeArm 33.988222 -0.000000 25.887644
RightHand 13.913103 -0.000000 -14.192788
RightHandThumb1 -24.326973 -0.000000 -32.862282
LeftShoulder -9.484682 17.104081 27.041530
LeftArm 63.507760 -13.449178 -62.576382
LeftForeArm 26.187909 -0.000000 77.443977
LeftHand -18.457149 -0.000000 3.307317
LeftHandThumb1 -26.253704 0.000000 33.147579
Head 1.180439 -21.831606 15.042936
269
root 4.416016 29.531831 -1.533222 21.945392 -20.839476 13.014959
RightUpLeg -81.503693 -1.654345 -12.248328
RightLeg 70.494070 -0.000000 -0.000000
RightFoot -25.042454 -11.595181 18.985663
RightToeBase 16.015351 -0.000000 -0.000000
LeftUpLeg -70.201361 8.940929 -14.927662
LeftLeg 71.991099 -0.000000 -0.000000
LeftFoot -34.133712 17.344872 -22.331597
LeftToeBase 5.443349 -0.000000 -0.000000
Spine 72.740449 -12.244830 9.343434
RightShoulder 17.608296 0.187229 -22.277733
RightArm 25.537550 24.341919 49.499533
RightForeArm 34.745263 0.000000 25.719647
RightHand 14.035252 -0.000000 -14.141029
RightHandThumb1 -24.326973 -0.000000 -32.862282
LeftShoulder -9.444219 17.112857 27.119558
LeftArm 63.516901 -13.771845 -62.035452
LeftForeArm 26.016553 -0.000000 76.758046
LeftHand -18.566537 -0.000000 3.034894
LeftHandThumb1 -26.253704 0.000000 33.147579
Head 0.926099 -21.881443 14.977919
270
root 4.476085 29.309745 -1.573439 21.766653 -20.978170 13.247250
RightUpLeg -82.245985 -1.796175 -12.407508
RightLeg 71.608311 -0.000000 -0.000000
RightFoot -25.423107 -11.291256 19.261438
RightToeBase 16.175935 -0.000000 -0.000000
LeftUpLeg -70.771668 8.865072 -15.194243
LeftLeg 73.050453 -0.000000 -0.000000
LeftFoot -34.604320 17.507619 -22.072905
LeftToeBase 5.451421 -0.000000 -0.000000
Spine 72.844541 -12.413490 9.241916
RightShoulder 17.581823 1.088581 -22.216076
RightArm 24.627372 24.222798 49.385908
RightForeArm 35.496571 -0.000000 25.542089
RightHand 14.292191 -0.000000 -14.379886
RightHandThumb1 -24.326973 -0.000000 -32.862282
LeftShoulder -9.517935 17.324631 27.058632
LeftArm 63.678343 -14.132915 -61.399719
LeftForeArm 25.743156 0.000000 76.028795
LeftHand -18.322690 -0.000000 3.049768
LeftHandThumb1 -26.253704 0.000000 33.147579
Head 0.726130 -21.860653 14.844561
271
root 4.530685 29.084175 -1.608641 21.551315 -21.126784 13.442567
RightUpLeg -82.941386 -1.905721 -12.519437
RightLeg 72.719519 -0.000000 -0.000000
RightFoot -25.820061 -11.010036 19.542200
RightToeBase 16.353651 -0.000000 -0.000000
LeftUpLeg -71.307591 8.868376 -15.452080
LeftLeg 74.140047 -0.000000 -0.000000
LeftFoot -35.114826 17.632469 -21.866987
LeftToeBase 5.527366 -0.000000 -0.000000
Spine 72.958729 -12.507744 9.275656
RightShoulder 17.448426 1.400134 -22.229226
RightArm 24.174269 24.400372 49.314755
RightForeArm 36.258781 -0.000000 25.276008
RightHand 14.400511 -0.000000 -14.269456
RightHandThumb1 -24.326973 -0.000000 -32.862282
LeftShoulder -9.524754 17.474575 27.039177
LeftArm 63.890945 -14.400473 -60.843552
LeftForeArm 25.648528 -0.000000 75.307715
LeftHand -18.289133 -0.000000 3.028088
LeftHandThumb1 -26.253704 0.000000 33.147579
Head 0.522308 -21.954461 14.713675
272
root 4.591627 28.856054 -1.639970 21.277986 -21.222496 13.700035
RightUpLeg -83.588287 -2.105962 -12.645479
RightLeg 73.818888 -0.000000 -0.000000
RightFoot -26.253342 -10.734768 19.840151
RightToeBase 16.492387 -0.000000 -0.000000
LeftUpLeg -71.788821 8.796967 -15.741669
LeftLeg 75.210366 -0.000000 -0.000000
LeftFoot -35.547704 17.796092 -21.576937
LeftToeBase 5.757374 -0.000000 -0.000000
Spine 73.075282 -12.703820 9.203668
RightShoulder 17.423146 1.494934 -22.337671
RightArm 23.860065 24.740115 49.312793
RightForeArm 37.074229 0.000000 25.094891
RightHand 14.543557 -0.000000 -14.205599
RightHandThumb1 -24.326973 -0.000000 -32.862282
LeftShoulder -9.551815 17.408694 27.087536
LeftArm 63.804030 -14.533543 -60.330886
LeftForeArm 25.638477 -0.000000 74.671432
LeftHand -18.249819 -0.000000 1.721520
LeftHandThumb1 -26.253704 0.000000 33.147579
Head 0.247911 -21.912605 14.600305
273
root 4.638374 28.626215 -1.672350 21.011394 -21.297433 13.845233
RightUpLeg -84.190252 -2.218829 -12.702968
RightLeg 74.923245 -0.000000 -0.000000
RightFoot -26.585212 -10.556233 19.967302
RightToeBase 16.340127 -0.000000 -0.000000
LeftUpLeg -72.268190 8.782766 -15.898872
LeftLeg 76.310282 -0.000000 -0.000000
LeftFoot -35.995516 17.859192 -21.438175
LeftToeBase 5.732170 -0.000000 -0.000000
Spine 73.198234 -12.863974 9.306561
RightShoulder 17.331130 1.466694 -22.444612
RightArm 23.646431 25.211791 49.314407
RightForeArm 37.933777 -0.000000 24.858034
RightHand 14.709541 -0.000000 -13.865577
RightHandThumb1 -24.326973 -0.000000 -32.862282
LeftShoulder -9.458272 17.197921 27.208592
LeftArm 63.521699 -14.573796 -59.770641
LeftForeArm 25.805510 0.000000 74.104764
LeftHand -18.067738 -0.000000 1.406628
LeftHandThumb1 -26.253704 0.000000 33.147579
Head 0.052528 -21.925955 14.419180
274
root 4.686820 28.390861 -1.707180 20.716253 -21.394989 14.053333
RightUpLeg -84.799670 -2.305922 -12.871813
RightLeg 76.036651 -0.000000 -0.000000
RightFoot -26.943252 -10.365719 20.096267
RightToeBase 16.190717 -0.000000 -0.000000
LeftUpLeg -72.762815 8.779578 -16.115974
LeftLeg 77.417932 -0.000000 -0.000000
LeftFoot -36.326553 17.947943 -21.259073
LeftToeBase 5.543716 -0.000000 -0.000000
Spine 73.291042 -13.012738 9.309363
RightShoulder 17.251404 1.170266 -22.639846
RightArm 23.733975 25.807215 49.466444
RightForeArm 38.866298 -0.000000 24.595086
RightHand 14.907968 -0.000000 -13.457616
RightHandThumb1 -24.326973 -0.000000 -32.862282
LeftShoulder -9.422849 17.063699 27.305290
LeftArm 63.287966 -14.608408 -59.207879
LeftForeArm 26.089921 -0.000000 73.540529
LeftHand -18.031548 -0.000000 0.734670
LeftHandThumb1 -26.253704 0.000000 33.147579
Head -0.195728 -21.809736 14.257664
275
root 4.728864 28.154389 -1.744842 20.425723 -21.468562 14.208888
RightUpLeg -85.410938 -2.365153 -12.936916
RightLeg 77.127356 -0.000000 -0.000000
RightFoot -27.249907 -10.374304 20.238318
RightToeBase 15.979689 -0.000000 -0.000000
LeftUpLeg -73.259644 8.779458 -16.245965
LeftLeg 78.544513 -0.000000 -0.000000
LeftFoot -36.701565 17.948058 -21.261622
LeftToeBase 5.144216 -0.000000 -0.000000
Spine 73.379099 -13.146659 9.409624
RightShoulder 17.185831 1.162172 -22.740935
RightArm 23.462964 26.215699 49.468331
RightForeArm 39.524632 -0.000000 24.441788
RightHand 14.881771 -0.000000 -13.231891
RightHandThumb1 -24.326973 -0.000000 -32.862282
LeftShoulder -9.385471 17.129205 27.318225
LeftArm 63.285313 -14.729340 -58.664375
LeftForeArm 26.272755 -0.000000 73.004972
LeftHand -17.988152 -0.000000 0.366777
LeftHandThumb1 -26.253704 0.000000 33.147579
Head -0.448896 -21.755924 14.101229
276
root 4.770202 27.917042 -1.777957 20.103912 -21.491606 14.390460
RightUpLeg -85.961242 -2.462168 -13.083456
RightLeg 78.229742 -0.000000 -0.000000
RightFoot -27.560861 -10.180410 20.279330
RightToeBase 15.822480 -0.000000 -0.000000
LeftUpLeg -73.716846 8.750939 -16.375833
LeftLeg 79.667902 -0.000000 -0.000000
LeftFoot -37.046285 17.829456 -21.245052
LeftToeBase 5.520599 -0.000000 -0.000000
Spine 73.428787 -13.340142 9.512329
RightShoulder 17.136069 1.121504 -22.856994
RightArm 23.239611 26.571472 49.460958
RightForeArm 40.439795 0.000000 24.176342
RightHand 14.966902 -0.000000 -12.944291
RightHandThumb1 -24.326973 -0.000000 -32.862282
LeftShoulder -9.301587 17.031129 27.386849
LeftArm 63.067971 -14.722498 -58.102914
LeftForeArm 26.592165 -0.000000 72.523545
LeftHand -17.805168 -0.000000 0.179744
LeftHandThumb1 -26.253704 0.000000 33.147579
Head -0.688942 -21.634900 13.926382
277
root 4.809228 27.678060 -1.813313 19.778652 -21.509514 14.608266
RightUpLeg -86.540407 -2.562212 -13.261767
RightLeg 79.352411 -0.000000 -0.000000
RightFoot -27.855192 -10.006868 20.303825
RightToeBase 15.643560 -0.000000 -0.000000
LeftUpLeg -74.182718 8.748698 -16.567471
LeftLeg 80.761460 -0.000000 -0.000000
LeftFoot -37.346049 17.754422 -21.187784
LeftToeBase 5.510843 -0.000000 -0.000000
Spine 73.456446 -13.541323 9.552293
RightShoulder 17.106588 1.388539 -22.891628
RightArm 22.822327 26.778559 49.425278
RightForeArm 41.113059 0.000000 23.846057
RightHand 15.040545 -0.000000 -12.431559
RightHandThumb1 -24.326973 -0.000000 -32.862282
LeftShoulder -9.287294 17.037234 27.351106
LeftArm 62.956212 -14.758805 -57.498604
LeftForeArm 26.687415 -0.000000 72.040505
LeftHand -17.678907 -0.000000 -0.481885
LeftHandThumb1 -26.253704 0.000000 33.147579
Head -0.852556 -21.420475 13.647461
